<?xml version="1.0" encoding="utf-8"?>
<!-- Generator: Adobe Illustrator 16.0.0, SVG Export Plug-In . SVG Version: 6.00 Build 0)  -->
<!DOCTYPE svg PUBLIC "-//W3C//DTD SVG 1.1//EN" "http://www.w3.org/Graphics/SVG/1.1/DTD/svg11.dtd">
<svg version="1.1" id="Layer_1" xmlns="http://www.w3.org/2000/svg" xmlns:xlink="http://www.w3.org/1999/xlink" x="0px" y="0px"
	 width="125px" height="105.066px" viewBox="1.75 1.25 125 105.066" enable-background="new 1.75 1.25 125 105.066"
	 xml:space="preserve">
<path fill="#FFFFFF" d="M30.981,85.852l-2.519-2.472c2.454-2.425,2.296-4.034,2.096-6.086c-0.217-2.216-0.481-4.973,2.724-8.121
	c2.794-2.751,5.43-2.338,7.542-2.005c2.072,0.326,3.563,0.56,5.823-1.656c2.024-1.993,1.819-3.229,1.503-5.101
	c-0.376-2.232-0.846-5.014,2.658-8.453l2.524,2.472c-2.213,2.169-1.996,3.457-1.667,5.41c0.369,2.175,0.827,4.879-2.501,8.144
	c-3.539,3.48-6.638,2.997-8.904,2.642c-1.837-0.292-2.946-0.467-4.46,1.02c-2.02,1.982-1.891,3.312-1.696,5.322
	C34.339,79.322,34.62,82.272,30.981,85.852"/>
<path fill="#FFFFFF" d="M113.179,62.883H76.67c-0.892,0-1.749-0.151-2.535-0.438c-1.737-0.629-3.158-1.895-3.979-3.503
	c-0.505-0.968-0.781-2.064-0.781-3.225c0-3.387,2.401-6.243,5.629-6.983c-0.105-0.642-0.164-1.306-0.164-1.982
	c0-5.147,3.17-9.572,7.689-11.502c0.082-0.035,0.164-0.069,0.246-0.099c0.117-0.053,0.235-0.1,0.364-0.14
	c0.082-0.029,0.152-0.059,0.234-0.088c0.106-0.035,0.212-0.07,0.317-0.099c0.094-0.029,0.188-0.059,0.27-0.088
	c0.118-0.035,0.224-0.064,0.341-0.094c0.07-0.022,0.152-0.04,0.223-0.058c0.142-0.035,0.282-0.064,0.423-0.094
	c0.059-0.012,0.105-0.023,0.152-0.035c0.165-0.034,0.329-0.063,0.505-0.087c0.047-0.006,0.094-0.012,0.142-0.023
	c0.176-0.023,0.34-0.047,0.528-0.064c0.035-0.006,0.07-0.006,0.117-0.012c0.176-0.017,0.363-0.028,0.552-0.04
	c0.023,0,0.059,0,0.082-0.006c0.188-0.006,0.399-0.012,0.599-0.012c0.188,0,0.376,0.006,0.563,0.012
	c5.518,0.232,10.131,3.911,11.669,8.896c1.408-1.09,3.169-1.737,5.106-1.737c4.226,0,7.701,3.131,8.158,7.165h0.059
	c4.027,0,7.302,3.218,7.302,7.17C120.48,59.677,117.218,62.883,113.179,62.883 M116.067,45.348
	c-1.69-4.413-6.034-7.556-11.105-7.556c-1.174,0-2.301,0.163-3.369,0.484c-2.899-4.6-8.065-7.655-13.97-7.655
	c-1.901,0-3.733,0.321-5.436,0.91c-2.195-6.949-8.78-11.869-16.446-11.869c-2.359,0-4.637,0.454-6.75,1.335
	c-0.517-0.997-1.115-1.965-1.772-2.886c-1.497-2.093-3.316-3.936-5.395-5.48c-4.332-3.206-9.491-4.896-14.926-4.896
	c-3.352,0-6.604,0.641-9.668,1.912c-2.958,1.225-5.611,2.979-7.895,5.218c-2.277,2.238-4.067,4.844-5.317,7.747
	c-1.298,3.009-1.955,6.203-1.955,9.491c0,0.303,0.006,0.606,0.018,0.903c-2.189,1.003-4.144,2.495-5.664,4.36
	c-2.23,2.729-3.457,6.156-3.457,9.648c0,4.127,1.632,7.998,4.602,10.913c2.964,2.915,6.903,4.518,11.094,4.518h23.231v-3.503H18.655
	c-6.691,0-12.132-5.329-12.132-11.928c0-3.347,1.415-6.378,3.68-8.552c0.123-0.111,0.24-0.228,0.364-0.333
	c0.375-0.332,0.769-0.635,1.18-0.921c1.232-0.845,2.635-1.469,4.144-1.818c-0.088-0.531-0.152-1.073-0.199-1.621
	c-0.018-0.279-0.035-0.554-0.047-0.834c-0.012-0.279-0.018-0.554-0.018-0.839c0-3.241,0.751-6.313,2.095-9.054
	c0.076-0.146,0.153-0.297,0.235-0.449c0.546-1.049,1.18-2.052,1.896-2.99c0.105-0.128,0.205-0.263,0.312-0.396
	c0.211-0.263,0.428-0.519,0.651-0.77c0.669-0.758,1.391-1.469,2.16-2.122c3.732-3.171,8.599-5.089,13.923-5.089
	c5.693,0,10.87,2.203,14.686,5.789c0.199,0.187,0.398,0.379,0.593,0.577c1.156,1.177,2.178,2.489,3.028,3.905
	c0.857,1.417,1.544,2.944,2.037,4.553c1.174-0.909,2.494-1.632,3.921-2.128c1.432-0.495,2.97-0.764,4.578-0.764
	c1.761,0,3.445,0.321,4.989,0.916c3.475,1.335,6.245,4.028,7.665,7.415c0.153,0.379,0.294,0.764,0.411,1.154
	c0.047,0.14,0.094,0.279,0.117,0.42c-4.555,2.792-7.606,7.712-7.724,13.338c-3.281,1.865-5.482,5.34-5.482,9.315
	c0,5.935,4.896,10.756,10.952,10.756h36.509c6.034,0,10.953-4.832,10.953-10.756C124.132,50.763,120.716,46.589,116.067,45.348"/>
<path fill="#FFFFFF" d="M62.795,43.937c-0.863,0-1.28-0.671-1.28-1.971c0-1.259,0.364-1.936,1.121-1.936
	c0.499,0,0.84,0.361,1.074,0.77v2.892C63.499,43.809,63.199,43.937,62.795,43.937 M62.378,45.458c0.616,0,1.057-0.21,1.332-0.402
	v2.554c0,0.273,0.235,0.414,0.787,0.414h0.363c0.546,0,0.781-0.141,0.781-0.414v-8.657c0-0.274-0.235-0.414-0.781-0.414h-0.158
	c-0.417,0-0.692,0.053-0.757,0.338l-0.13,0.56c-0.305-0.56-0.944-0.979-1.755-0.979c-1.449,0-2.506,1.247-2.506,3.509
	C59.555,44.082,60.576,45.458,62.378,45.458 M55.375,41.29c0.153-0.997,0.629-1.312,1.175-1.312c0.651,0,0.938,0.56,0.938,1.312
	H55.375z M53.374,42.007c0,2.087,1.045,3.451,3.41,3.451c0.733,0,2.354-0.285,2.354-0.938c0-0.257-0.394-0.985-0.681-0.985
	c-0.182,0-0.757,0.402-1.579,0.402c-0.851,0-1.414-0.326-1.503-1.364h3.328c0.171,0,0.67-0.542,0.67-0.764
	c0-1.802-0.77-3.346-2.823-3.346C54.683,38.463,53.374,39.447,53.374,42.007 M45.761,49.096h5.201c0.275,0,0.393-0.192,0.393-0.647
	v-0.221c0-0.449-0.117-0.647-0.393-0.647h-3.018l2.454-3.014c0.469-0.565,0.798-1.283,0.798-2.11c0-1.481-1.004-2.548-2.847-2.548
	c-1.227,0-2.601,0.432-2.601,1.195c0,0.338,0.341,0.897,0.746,0.897c0.234,0,0.692-0.56,1.531-0.56c0.688,0,1.216,0.35,1.216,1.05
	c0,0.483-0.212,0.897-0.499,1.247l-3.305,4.022c-0.029,0.041-0.041,0.104-0.041,0.192C45.397,48.332,45.562,49.096,45.761,49.096
	 M38.09,42.217c-2.396,0-3.651-1.778-3.651-5.055c0-3.271,1.256-5.03,3.651-5.03c2.4,0,3.633,1.76,3.633,5.03
	C41.723,40.438,40.49,42.217,38.09,42.217 M30.894,37.162c0,5.147,2.576,7.976,7.196,7.976c4.619,0,7.172-2.828,7.172-7.976
	c0-5.142-2.553-7.969-7.172-7.969C33.47,29.193,30.894,32.021,30.894,37.162 M19.008,37.122c0,5.497,2.348,8.01,7.372,8.01
	c1.79,0,5.001-0.531,5.001-1.866c0-0.379-0.61-1.94-1.327-1.94c-0.334,0-1.543,0.892-3.674,0.892c-2.577,0-3.833-1.737-3.833-5.078
	c0-3.334,1.232-5.007,3.88-5.007c2.125,0,3.022,0.711,3.293,0.711c0.558,0,1.455-1.463,1.455-2.093c0-0.933-2.712-1.557-4.684-1.557
	C21.514,29.193,19.008,31.822,19.008,37.122"/>
<path fill="#FFFFFF" d="M80.122,100.041l2.523-2.472c-2.453-2.413-2.289-4.022-2.102-6.074c0.212-2.216,0.493-4.979-2.724-8.127
	c-2.794-2.74-5.423-2.332-7.536-1.994c-2.072,0.315-3.568,0.561-5.822-1.667c-2.031-1.993-1.82-3.224-1.509-5.101
	c0.382-2.233,0.851-5.008-2.659-8.453l-2.518,2.478c2.213,2.169,1.989,3.457,1.661,5.404c-0.364,2.174-0.822,4.891,2.5,8.155
	c3.545,3.475,6.645,2.985,8.91,2.635c1.831-0.291,2.946-0.466,4.461,1.015c2.02,1.994,1.878,3.312,1.69,5.328
	C76.765,93.523,76.482,96.462,80.122,100.041"/>
</svg>
