<?xml version="1.0" encoding="utf-8"?>
<!-- Generator: Adobe Illustrator 16.0.0, SVG Export Plug-In . SVG Version: 6.00 Build 0)  -->
<!DOCTYPE svg PUBLIC "-//W3C//DTD SVG 1.1//EN" "http://www.w3.org/Graphics/SVG/1.1/DTD/svg11.dtd">
<svg version="1.1" id="Layer_1" xmlns="http://www.w3.org/2000/svg" xmlns:xlink="http://www.w3.org/1999/xlink" x="0px" y="0px"
	 width="125px" height="105.066px" viewBox="0 0 125 105.066" enable-background="new 0 0 125 105.066" xml:space="preserve">
<g>
	<path fill="#FFFFFF" d="M32.008,12.303c-16.239,0-29.048,6.465-29.048,14.788v49.64c0,8.324,12.809,14.795,29.048,14.795
		c16.245,0,29.054-6.471,29.054-14.795v-49.64C60.93,18.768,48.253,12.303,32.008,12.303z M56.571,45.179
		c0.265,0.662,0.524,1.318,0.524,1.98c0,6.47-13.333,10.96-25.088,10.96c-11.749,0-25.087-4.49-25.087-10.96
		c0-0.662,0.132-1.318,0.53-1.98c5.02,4.226,13.994,6.867,24.558,6.867S51.552,49.271,56.571,45.179z M6.788,56.928
		c0-0.656,0.132-1.318,0.53-1.98c5.02,4.226,13.995,6.868,24.558,6.868c10.562,0,19.543-2.643,24.563-6.868
		c0.265,0.662,0.529,1.324,0.529,1.98c0,6.471-13.338,10.961-25.093,10.961C20.126,67.889,6.788,63.53,6.788,56.928z M56.571,35.013
		c0.397,0.788,0.524,1.45,0.524,2.112c0,6.471-13.333,10.961-25.088,10.961c-11.749,0-25.087-4.49-25.087-10.828
		c0-0.662,0.132-1.457,0.53-2.113c5.02,4.226,13.994,6.862,24.558,6.862C42.438,42.007,51.419,39.237,56.571,35.013z M7.318,64.854
		c5.02,4.226,14.126,6.994,24.69,6.994s19.544-2.636,24.563-6.861c0.265,0.656,0.524,1.318,0.524,1.98
		c0,6.47-13.333,10.96-25.088,10.96C20.259,77.928,6.92,73.57,6.92,67.1C6.788,66.306,7.053,65.644,7.318,64.854z M32.008,16.131
		c11.888,0,25.088,4.49,25.088,10.96c0,6.465-13.333,10.955-25.088,10.955c-11.749,0-25.087-4.49-25.087-10.955
		C6.92,20.621,20.126,16.131,32.008,16.131z M32.008,87.968c-11.882,0-25.087-4.49-25.087-10.961v-2.383
		c5.02,4.49,14.259,7.265,25.087,7.265s20.073-2.901,25.088-7.265v2.383C57.096,83.339,43.763,87.968,32.008,87.968z"/>
	<path fill="#FFFFFF" d="M94.732,32.105V17.052l12.549,8.318c0.392,0.265,0.646,0.397,1.048,0.397c0.656,0,1.324-0.265,1.589-0.922
		c0.656-0.927,0.392-2.112-0.529-2.642l-13.471-8.98c-1.98-1.318-4.226-1.318-6.205,0l-13.471,8.98
		c-0.921,0.656-1.187,1.848-0.53,2.642c0.668,0.922,1.854,1.187,2.648,0.524l12.538-8.318v29.975c0,1.06,0.933,1.98,1.991,1.98
		c1.048,0,1.98-0.921,1.98-1.98V36.065c11.076,0.397,22.969,4.756,22.969,10.829c0,6.47-13.344,10.96-25.087,10.96
		c-11.755,0-25.088-4.49-25.088-10.96c0-3.696,4.882-7.392,12.412-9.505c1.047-0.265,1.715-1.324,1.45-2.245
		c-0.265-0.927-1.324-1.715-2.383-1.456c-9.499,2.51-15.181,7.529-15.181,13.206V76.73c0,8.324,12.809,14.795,29.054,14.795
		s29.048-6.471,29.048-14.795V46.895C121.8,38.973,110.045,32.635,94.732,32.105z M67.664,66.968c0-0.662,0.127-1.324,0.524-1.98
		c5.014,4.226,13.994,6.861,24.563,6.861s19.538-2.636,24.558-6.861c0.265,0.656,0.529,1.318,0.529,1.98
		c0,6.47-13.344,10.96-25.087,10.96C80.997,77.928,67.664,73.438,67.664,66.968z M92.752,61.815c10.431,0,19.411-2.643,24.558-6.868
		c0.403,0.795,0.529,1.457,0.529,2.113c0,6.47-13.344,10.96-25.087,10.96c-11.755,0-25.088-4.49-25.088-10.96
		c0-0.656,0.127-1.318,0.524-2.113C73.202,59.173,82.183,61.815,92.752,61.815z M92.752,87.968c-11.882,0-25.088-4.49-25.088-10.961
		c0-0.668,0.127-1.324,0.524-1.98c5.014,4.214,13.994,6.862,24.563,6.862s19.538-2.648,24.558-6.862
		c0.265,0.656,0.529,1.312,0.529,1.98C117.966,83.339,104.634,87.968,92.752,87.968z"/>
</g>
</svg>
