<?xml version="1.0" encoding="utf-8"?>
<!-- Generator: Adobe Illustrator 16.0.0, SVG Export Plug-In . SVG Version: 6.00 Build 0)  -->
<!DOCTYPE svg PUBLIC "-//W3C//DTD SVG 1.1//EN" "http://www.w3.org/Graphics/SVG/1.1/DTD/svg11.dtd">
<svg version="1.1" id="Layer_1" xmlns="http://www.w3.org/2000/svg" xmlns:xlink="http://www.w3.org/1999/xlink" x="0px" y="0px"
	 width="36px" height="36px" viewBox="0 0 36 36" enable-background="new 0 0 36 36" xml:space="preserve">
<g>
	<path fill="#B33C00" d="M33.335,0H2.655C1.19,0,0,1.162,0,2.596v30.806C0,34.836,1.19,36,2.655,36h30.681
		C34.804,36,36,34.836,36,33.402V2.596C36,1.162,34.804,0,33.335,0z"/>
	<g>
		
			<line fill="none" stroke="#FFFFFF" stroke-width="5" stroke-linecap="round" stroke-miterlimit="10" x1="6.625" y1="17.5" x2="18" y2="6.125"/>
		
			<line fill="none" stroke="#FFFFFF" stroke-width="5" stroke-linecap="round" stroke-miterlimit="10" x1="29.375" y1="17.5" x2="18" y2="6.125"/>
	</g>
	<g>
		<path fill="#FFFFFF" d="M13.541,25.268h-2.613v7.107H9.169v-7.107H6.591v-1.424h6.949V25.268z"/>
		<path fill="#FFFFFF" d="M21.386,28.303c0,0.84-0.148,1.576-0.445,2.209s-0.722,1.121-1.274,1.465s-1.187,0.516-1.901,0.516
			c-0.707,0-1.338-0.17-1.893-0.51s-0.984-0.825-1.289-1.456s-0.459-1.356-0.463-2.177v-0.422c0-0.84,0.151-1.579,0.454-2.218
			s0.73-1.129,1.283-1.471s1.185-0.513,1.896-0.513s1.343,0.171,1.896,0.513s0.98,0.832,1.283,1.471s0.454,1.376,0.454,2.212V28.303
			z M19.605,27.916c0-0.895-0.16-1.574-0.48-2.039s-0.777-0.697-1.371-0.697c-0.59,0-1.045,0.229-1.365,0.688
			S15.906,27,15.902,27.887v0.416c0,0.871,0.16,1.547,0.48,2.027s0.781,0.721,1.383,0.721c0.59,0,1.043-0.231,1.359-0.694
			s0.477-1.138,0.48-2.024V27.916z"/>
		<path fill="#FFFFFF" d="M24.421,29.369v3.006h-1.758v-8.531h3.328c0.641,0,1.204,0.117,1.69,0.352s0.86,0.567,1.122,0.999
			s0.393,0.923,0.393,1.474c0,0.836-0.286,1.495-0.858,1.978s-1.364,0.724-2.376,0.724H24.421z M24.421,27.945h1.57
			c0.465,0,0.819-0.109,1.063-0.328s0.366-0.531,0.366-0.938c0-0.418-0.123-0.756-0.369-1.014s-0.586-0.391-1.02-0.398h-1.611
			V27.945z"/>
	</g>
</g>
</svg>
