<?xml version="1.0" encoding="utf-8"?>
<!-- Generator: Adobe Illustrator 16.0.0, SVG Export Plug-In . SVG Version: 6.00 Build 0)  -->
<!DOCTYPE svg PUBLIC "-//W3C//DTD SVG 1.1//EN" "http://www.w3.org/Graphics/SVG/1.1/DTD/svg11.dtd">
<svg version="1.1" id="Layer_1" xmlns="http://www.w3.org/2000/svg" xmlns:xlink="http://www.w3.org/1999/xlink" x="0px" y="0px"
	 width="35.999px" height="36px" viewBox="0 0 35.999 36" enable-background="new 0 0 35.999 36" xml:space="preserve">
<g>
	<path fill="#007BB6" d="M33.336,0H2.655C1.19,0,0,1.162,0,2.596v30.807C0,34.836,1.19,36,2.655,36h30.681
		c1.468,0,2.663-1.164,2.663-2.598V2.596C35.999,1.162,34.804,0,33.336,0z"/>
	<path fill="#FFFFFF" d="M5.334,13.496h5.345v17.18H5.334V13.496z M8.008,4.956c1.708,0,3.095,1.387,3.095,3.096
		c0,1.709-1.387,3.097-3.095,3.097c-1.715,0-3.098-1.387-3.098-3.097C4.91,6.343,6.293,4.956,8.008,4.956"/>
	<path fill="#FFFFFF" d="M14.028,13.496h5.118v2.349h0.073c0.712-1.351,2.454-2.775,5.052-2.775c5.406,0,6.405,3.557,6.405,8.184
		v9.422h-5.339v-8.354c0-1.992-0.034-4.555-2.774-4.555c-2.778,0-3.202,2.171-3.202,4.413v8.497h-5.333V13.496z"/>
</g>
</svg>
