<?xml version="1.0" encoding="utf-8"?>
<!-- Generator: Adobe Illustrator 16.0.0, SVG Export Plug-In . SVG Version: 6.00 Build 0)  -->
<!DOCTYPE svg PUBLIC "-//W3C//DTD SVG 1.1//EN" "http://www.w3.org/Graphics/SVG/1.1/DTD/svg11.dtd">
<svg version="1.1" id="Layer_1" xmlns="http://www.w3.org/2000/svg" xmlns:xlink="http://www.w3.org/1999/xlink" x="0px" y="0px"
	 width="125px" height="105.066px" viewBox="0 0 125 105.066" enable-background="new 0 0 125 105.066" xml:space="preserve">
<g>
	<g>
		<path fill="none" stroke="#000000" stroke-width="2" stroke-miterlimit="10" d="M71.931,8.928"/>
	</g>
	<g>
		<polygon fill="#FFFFFF" points="73.257,102.017 48.751,95.455 24.6,88.662 25.284,86.221 49.419,93.003 71.467,98.912 
			89.085,33.378 91.526,34.035 		"/>
	</g>
</g>
<g>
	<path fill="#FFFFFF" d="M100.981,5.603c-0.376-0.585-1.172-0.745-1.746-0.359c-4.075,2.695-6.495,1.938-9.83,0.895
		c-2.872-0.9-6.451-2.027-11.741-0.922c-2.188,0.458-4.033,1.304-5.59,2.347l-2.353-3.385L41.179,17.571L23.583,83.238l23.279,6.241
		l23.278,6.241l17.597-65.673L73.532,9.657c1.314-0.879,2.839-1.58,4.65-1.961c4.65-0.967,7.61-0.038,10.472,0.855
		c3.557,1.11,6.903,2.166,11.974-1.192C101.224,6.973,101.379,6.183,100.981,5.603z M70.03,49.046l-6.262-0.834
		c0.138-1.977-0.476-3.507-1.846-4.589l-2.502,9.345c3.546,2.061,5.794,4.098,6.738,6.119c0.934,2.021,1.066,4.319,0.381,6.904
		c-0.773,2.882-2.297,5.081-4.573,6.583c-2.274,1.507-5.025,2.071-8.251,1.685l-1.198,4.474l-3.463-0.928l1.165-4.358
		c-2.667-1.071-4.628-2.701-5.894-4.882c-1.258-2.182-1.706-4.904-1.342-8.174l6.419,1.005c-0.089,1.342,0.094,2.568,0.546,3.684
		c0.453,1.11,1.055,1.988,1.807,2.635L54.439,57.7c-2.888-1.728-4.816-3.694-5.788-5.893c-0.972-2.197-1.115-4.589-0.42-7.169
		c0.702-2.612,2.11-4.589,4.236-5.925c2.126-1.332,4.596-1.769,7.406-1.305l0.635-2.363l3.464,0.928l-0.636,2.364
		c2.457,0.982,4.241,2.386,5.357,4.213C69.81,44.379,70.252,46.545,70.03,49.046z M70.959,21.548
		c-0.818,3.037-3.933,4.838-6.977,4.026c-3.037-0.812-4.843-3.938-4.025-6.976c0.734-2.751,3.369-4.469,6.113-4.17
		c-0.514,0.972-0.911,1.883-1.188,2.635c-1.12,0.22-2.076,1.038-2.391,2.214c-0.441,1.636,0.536,3.32,2.17,3.761
		c1.641,0.437,3.325-0.535,3.767-2.17c0.321-1.215-0.132-2.452-1.049-3.187c0.276-0.696,0.651-1.519,1.137-2.386
		C70.55,16.6,71.621,19.09,70.959,21.548z"/>
	<path fill="#FFFFFF" d="M57.626,59.656l-2.496,9.322c1.254,0.094,2.375-0.198,3.358-0.878c0.982-0.686,1.635-1.624,1.96-2.822
		c0.282-1.065,0.216-2.07-0.209-3.016C59.819,61.323,58.946,60.456,57.626,59.656z"/>
	<path fill="#FFFFFF" d="M56.263,50.892l2.214-8.274c-1.027,0.072-1.922,0.409-2.684,1.027c-0.763,0.613-1.266,1.387-1.514,2.309
		c-0.227,0.845-0.183,1.696,0.133,2.558C54.727,49.372,55.346,50.167,56.263,50.892z"/>
</g>
</svg>
